<svg width="421" height="298" viewBox="0 0 421 298" fill="none" xmlns="http://www.w3.org/2000/svg">
<path d="M61.9502 297.844C61.3201 297.844 60.847 297.269 60.9692 296.651L104.49 76.474C104.569 76.074 104.932 75.794 105.339 75.8187L151.93 78.6421C152.335 78.6667 152.639 79.0223 152.601 79.4266L131.916 296.939C131.867 297.452 131.436 297.844 130.92 297.844H61.9502Z" fill="white"/>
<path d="M51.6494 113.895C51.6494 113.343 52.0971 112.895 52.6494 112.895H210.393V143.149H52.6494C52.0971 143.149 51.6494 142.701 51.6494 142.149V113.895Z" fill="white"/>
<path d="M1.63962 0.665626C0.969643 0.382766 0.221702 0.877319 0.221722 1.60456L0.223396 63.7137C0.223409 64.2145 0.59239 64.6378 1.08874 64.7044C37.759 69.6211 77.2472 74.1893 104.49 76.474C104.569 76.074 104.932 75.794 105.339 75.8187L151.93 78.6421C152.335 78.6667 152.639 79.0223 152.601 79.4266C170.538 80.1241 189.248 80.4233 210.393 80.4238V36.5437C210.393 36.5437 156.743 37.9891 94.28 26.1984C39.4603 15.8505 8.41625 3.5267 1.63962 0.665626Z" fill="white"/>
<path d="M1.63962 0.665626C0.969643 0.382766 0.221702 0.877319 0.221722 1.60456L0.223396 63.7137C0.223409 64.2145 0.59239 64.6378 1.08874 64.7044C37.759 69.6211 77.2472 74.1893 104.49 76.474C104.569 76.074 104.932 75.794 105.339 75.8187L151.93 78.6421C152.335 78.6667 152.639 79.0223 152.601 79.4266C170.538 80.1241 189.248 80.4233 210.393 80.4238V36.5437C210.393 36.5437 156.743 37.9891 94.28 26.1984C39.4603 15.8505 8.41625 3.5267 1.63962 0.665626Z" fill="white"/>
<path d="M1.63962 0.665626C0.969643 0.382766 0.221702 0.877319 0.221722 1.60456L0.223396 63.7137C0.223409 64.2145 0.59239 64.6378 1.08874 64.7044C37.759 69.6211 77.2472 74.1893 104.49 76.474C104.569 76.074 104.932 75.794 105.339 75.8187L151.93 78.6421C152.335 78.6667 152.639 79.0223 152.601 79.4266C170.538 80.1241 189.248 80.4233 210.393 80.4238V36.5437C210.393 36.5437 156.743 37.9891 94.28 26.1984C39.4603 15.8505 8.41625 3.5267 1.63962 0.665626Z" fill="white"/>
<path d="M1.63962 0.665626C0.969643 0.382766 0.221702 0.877319 0.221722 1.60456L0.223396 63.7137C0.223409 64.2145 0.59239 64.6378 1.08874 64.7044C37.759 69.6211 77.2472 74.1893 104.49 76.474C104.569 76.074 104.932 75.794 105.339 75.8187L151.93 78.6421C152.335 78.6667 152.639 79.0223 152.601 79.4266C170.538 80.1241 189.248 80.4233 210.393 80.4238V36.5437C210.393 36.5437 156.743 37.9891 94.28 26.1984C39.4603 15.8505 8.41625 3.5267 1.63962 0.665626Z" fill="white"/>
<path d="M358.438 297.825C359.069 297.825 359.542 297.249 359.419 296.631L315.899 76.4544C315.82 76.0544 315.457 75.7745 315.05 75.7991L268.459 78.6226C268.054 78.6472 267.749 79.0028 267.788 79.4071L288.473 296.92C288.522 297.433 288.953 297.825 289.469 297.825H358.438Z" fill="white"/>
<path d="M368.739 113.875C368.739 113.323 368.292 112.875 367.739 112.875H209.996V143.129H367.739C368.292 143.129 368.739 142.681 368.739 142.129V113.875Z" fill="white"/>
<path d="M418.749 0.646095C419.419 0.363234 420.167 0.857788 420.167 1.58502L420.165 63.6941C420.165 64.1949 419.796 64.6183 419.3 64.6849C382.63 69.6016 343.141 74.1698 315.899 76.4544C315.82 76.0544 315.457 75.7745 315.05 75.7991L268.459 78.6226C268.054 78.6472 267.749 79.0028 267.788 79.4071C249.85 80.1046 231.14 80.4037 209.996 80.4043V36.5242C209.996 36.5242 263.646 37.9696 326.109 26.1789C380.928 15.8309 411.972 3.50717 418.749 0.646095Z" fill="white"/>
<path d="M418.749 0.646095C419.419 0.363234 420.167 0.857788 420.167 1.58502L420.165 63.6941C420.165 64.1949 419.796 64.6183 419.3 64.6849C382.63 69.6016 343.141 74.1698 315.899 76.4544C315.82 76.0544 315.457 75.7745 315.05 75.7991L268.459 78.6226C268.054 78.6472 267.749 79.0028 267.788 79.4071C249.85 80.1046 231.14 80.4037 209.996 80.4043V36.5242C209.996 36.5242 263.646 37.9696 326.109 26.1789C380.928 15.8309 411.972 3.50717 418.749 0.646095Z" fill="white"/>
<path d="M418.749 0.646095C419.419 0.363234 420.167 0.857788 420.167 1.58502L420.165 63.6941C420.165 64.1949 419.796 64.6183 419.3 64.6849C382.63 69.6016 343.141 74.1698 315.899 76.4544C315.82 76.0544 315.457 75.7745 315.05 75.7991L268.459 78.6226C268.054 78.6472 267.749 79.0028 267.788 79.4071C249.85 80.1046 231.14 80.4037 209.996 80.4043V36.5242C209.996 36.5242 263.646 37.9696 326.109 26.1789C380.928 15.8309 411.972 3.50717 418.749 0.646095Z" fill="white"/>
<path d="M418.749 0.646095C419.419 0.363234 420.167 0.857788 420.167 1.58502L420.165 63.6941C420.165 64.1949 419.796 64.6183 419.3 64.6849C382.63 69.6016 343.141 74.1698 315.899 76.4544C315.82 76.0544 315.457 75.7745 315.05 75.7991L268.459 78.6226C268.054 78.6472 267.749 79.0028 267.788 79.4071C249.85 80.1046 231.14 80.4037 209.996 80.4043V36.5242C209.996 36.5242 263.646 37.9696 326.109 26.1789C380.928 15.8309 411.972 3.50717 418.749 0.646095Z" fill="white"/>
</svg>
